<svg width="24" height="24" viewBox="0 0 24 24" fill="none" xmlns="http://www.w3.org/2000/svg">
<path d="M15.45 0.75C21.75 0.75 23.25 2.25 23.25 8.55V15.45C23.25 21.75 21.75 23.25 15.45 23.25H8.55C2.25 23.25 0.75 21.75 0.75 15.45V8.55C0.75 2.25 2.25 0.75 8.55 0.75H15.45ZM6.6094 7.78125H4.96878C4.50003 7.78125 4.40627 8.00191 4.40627 8.24524C4.40627 8.67979 4.96248 10.8351 6.99607 13.6856C8.35179 15.6323 10.2619 16.6875 12 16.6875C13.0429 16.6875 13.1719 16.4531 13.1719 16.0494V14.5781C13.1719 14.1094 13.2707 14.0158 13.6009 14.0158C13.8443 14.0158 14.2614 14.1375 15.2348 15.0761C16.3472 16.1885 16.5306 16.6875 17.1563 16.6875H18.7969C19.2657 16.6875 19.5 16.4531 19.3648 15.9906C19.2169 15.5296 18.6858 14.8608 17.981 14.068C17.5986 13.6161 17.0251 13.1294 16.8512 12.886C16.6079 12.5732 16.6774 12.4341 16.8512 12.156L16.8804 12.1146C17.1276 11.7633 18.865 9.27199 19.0587 8.38432C19.1629 8.03669 19.0587 7.78125 18.5625 7.78125H16.9219C16.5047 7.78125 16.3124 8.00191 16.2081 8.24524C16.2081 8.24524 15.3738 10.2789 14.1919 11.5998C13.8095 11.9822 13.6357 12.1039 13.4271 12.1039C13.3228 12.1039 13.1719 11.9822 13.1719 11.6346V8.38432C13.1719 7.96717 13.0508 7.78125 12.7032 7.78125H10.125C9.86434 7.78125 9.70756 7.97486 9.70756 8.15836C9.70756 8.55381 10.2985 8.64501 10.3594 9.75743V12.1734C10.3594 12.7031 10.2637 12.7992 10.0552 12.7992C9.49898 12.7992 8.14607 10.7565 7.34367 8.41907C7.18642 7.96476 7.0287 7.78125 6.6094 7.78125Z" fill="white"/>
</svg>
