<svg width="18" height="20" viewBox="0 0 18 20" fill="none" xmlns="http://www.w3.org/2000/svg">
<path fill-rule="evenodd" clip-rule="evenodd" d="M8.99993 0H9.0333C13.7197 0.0184162 17.5183 3.84197 17.4999 8.52232V8.61528C17.4366 11.96 15.4258 14.7356 13.7504 16.4746C13.2736 16.9718 12.7661 17.4489 12.2427 17.8944C11.9292 18.1619 11.4586 18.1251 11.1908 17.812C10.923 17.498 10.9607 17.028 11.2742 16.7605C11.7589 16.3475 12.2304 15.9037 12.6739 15.4416C14.1649 13.8946 15.9527 11.4487 16.0071 8.58809C16.022 4.65842 12.8916 1.50574 9.02715 1.48996H8.99993C5.14862 1.48996 2.00768 4.61194 1.99276 8.46093C2.05861 10.3622 2.70138 12.1696 3.85256 13.6859C5.19604 15.4749 7.23409 17.3691 9.17116 18.6302C9.51713 18.8547 9.6146 19.316 9.38893 19.6615C9.24668 19.8807 9.00696 20 8.76285 20C8.62323 20 8.48274 19.9614 8.35629 19.879C6.28224 18.5293 4.0993 16.5 2.66011 14.5839C1.32453 12.8238 0.577272 10.7235 0.5 8.51267C0.51844 3.78585 4.32848 0 8.99993 0ZM7.25516 8.61414C7.25516 9.57266 8.03667 10.354 8.9973 10.354C9.95793 10.354 10.7394 9.57266 10.7394 8.61414C10.7394 7.65474 9.95793 6.87337 8.9973 6.87337C8.58547 6.87337 8.25092 6.54012 8.25092 6.12883C8.25092 5.71665 8.58547 5.38341 8.9973 5.38341C10.7807 5.38341 12.2322 6.83215 12.2322 8.61414C12.2322 10.3952 10.7807 11.844 8.9973 11.844C7.21389 11.844 5.76241 10.3952 5.76241 8.61414C5.76241 8.20196 6.09696 7.86872 6.50879 7.86872C6.92061 7.86872 7.25516 8.20196 7.25516 8.61414Z" fill="white"/>
</svg>
