<svg width="22" height="22" viewBox="0 0 22 22" fill="none" xmlns="http://www.w3.org/2000/svg">
<path d="M17.6875 9.25002C19.8588 9.25002 21.625 7.48378 21.625 5.31252C21.625 4.66002 21.445 4.05252 21.1638 3.51252L18.1263 6.55002L16.45 4.87378L19.4875 1.83627C18.9475 1.55502 18.34 1.37502 17.6875 1.37502C15.5163 1.37502 13.75 3.14127 13.75 5.31252C13.75 5.77378 13.84 6.21252 13.9863 6.61752L11.905 8.69878L9.90252 6.69627L10.7013 5.89752L9.11502 4.31128L11.5 1.92627C10.1838 0.610024 8.04627 0.610024 6.73002 1.92627L2.74752 5.90877L4.33377 7.49502H1.16127L0.362518 8.29377L4.34502 12.2763L5.14377 11.4775V8.29377L6.73002 9.88003L7.52877 9.08128L9.53127 11.0838L1.19502 19.42L3.58002 21.805L16.3825 9.01377C16.7875 9.16002 17.2263 9.25002 17.6875 9.25002Z" fill="white"/>
</svg>
